<svg height="512pt" viewBox="0 0 512.00027 512" width="512pt" xmlns="http://www.w3.org/2000/svg"><path d="m509.300781 247.296875c-4.800781-6.296875-114.699219-156.296875-253.300781-156.296875s-248.5 150-253.296875 156.296875c-3.605469 5.101563-3.605469 12.304687 0 17.402344 4.796875 6.300781 114.699219 156.300781 253.296875 156.300781s248.5-150 253.300781-156.300781c3.601563-5.097657 3.601563-12.296875 0-17.402344zm0 0" fill="#c6e2e7"/><path d="m509.300781 264.699219c-4.800781 6.300781-114.699219 156.300781-253.300781 156.300781v-330c138.601562 0 248.5 150 253.300781 156.296875 3.601563 5.105469 3.601563 12.304687 0 17.402344zm0 0" fill="#a8d3d8"/><path d="m256 151c-57.898438 0-105 47.101562-105 105s47.101562 105 105 105 105-47.101562 105-105-47.101562-105-105-105zm0 0" fill="#697c86"/><path d="m361 256c0 57.898438-47.101562 105-105 105v-210c57.898438 0 105 47.101562 105 105zm0 0" fill="#596c76"/><path d="m256 211c-24.902344 0-45 20.097656-45 45 0 24.898438 20.097656 45 45 45s45-20.101562 45-45-20.097656-45-45-45zm0 0" fill="#465a61"/><path d="m512 437c0-8.292969-6.710938-15-15-15-8.292969 0-15 6.707031-15 15v23.789062l-34.394531-34.394531c-5.859375-5.859375-15.351563-5.859375-21.210938 0s-5.859375 15.351563 0 21.210938l34.394531 34.394531h-23.789062c-8.292969 0-15 6.707031-15 15 0 8.289062 6.707031 15 15 15h60c8.304688 0 15-6.835938 15-15zm0 0" fill="#cc2e43"/><path d="m497 0h-60c-8.292969 0-15 6.710938-15 15 0 8.292969 6.707031 15 15 15h23.789062l-34.394531 34.394531c-5.859375 5.859375-5.859375 15.351563 0 21.210938s15.351563 5.859375 21.210938 0l34.394531-34.394531v23.789062c0 8.289062 6.707031 15 15 15 8.289062 0 15-6.710938 15-15v-60c0-8.164062-6.691406-15-15-15zm0 0" fill="#cc2e43"/><path d="m75 482h-23.789062l34.394531-34.394531c5.859375-5.859375 5.859375-15.351563 0-21.210938s-15.351563-5.859375-21.210938 0l-34.394531 34.394531v-23.789062c0-8.292969-6.707031-15-15-15-8.289062 0-15 6.707031-15 15v60c0 8.304688 6.835938 15 15 15h60c8.292969 0 15-6.710938 15-15 0-8.292969-6.707031-15-15-15zm0 0" fill="#e63950"/><path d="m51.210938 30h23.789062c8.292969 0 15-6.707031 15-15 0-8.289062-6.707031-15-15-15h-60c-8.164062 0-15 6.691406-15 15v60c0 8.289062 6.710938 15 15 15 8.292969 0 15-6.710938 15-15v-23.789062l34.394531 34.394531c5.859375 5.859375 15.351563 5.859375 21.210938 0s5.859375-15.351563 0-21.210938zm0 0" fill="#e63950"/><path d="m301 256c0 24.898438-20.097656 45-45 45v-90c24.902344 0 45 20.101562 45 45zm0 0" fill="#3b4a51"/></svg>